<svg xmlns="http://www.w3.org/2000/svg" width="328" height="198" viewBox="0 0 328 198"><defs><style>.a{fill:#171717;}.b{fill:#fff;}</style></defs><g transform="translate(-1150 -1429)"><rect class="a" width="328" height="198" rx="25" transform="translate(1150 1429)"/><g transform="translate(1200 1481)"><path class="b" d="M469.443,139.9c-6.21,0-9.943,4.8-9.943,10.432v.153c0,5.66,4.069,10.585,10.1,10.585,6.21,0,9.943-4.8,9.943-10.432v-.153C479.508,144.825,475.439,139.9,469.443,139.9Zm-2.906,18.784a9.375,9.375,0,0,1-.612-3.4,8.15,8.15,0,0,1,11.136-8.2C479.63,153.606,474.429,161.5,466.536,158.684Z" transform="translate(-318.923 -97.098)"/><path class="b" d="M636.743,139.9c-6.21,0-9.943,4.8-9.943,10.432v.153c0,5.66,4.069,10.585,10.1,10.585,6.21,0,9.943-4.8,9.943-10.432v-.153C646.838,144.825,642.769,139.9,636.743,139.9ZM645,150.485a8.15,8.15,0,0,1-11.136,8.2c-2.57-6.516,2.631-14.44,10.524-11.595A9.811,9.811,0,0,1,645,150.485Z" transform="translate(-435.041 -97.098)"/><path class="b" d="M223.044,43.222c-1.713-1.774-3.4-3.579-5.14-5.354-8.291-8.535-24.6-8.229-32.551.4-.551-.551-1.071-1.132-1.621-1.713a7.014,7.014,0,0,0,3.029-11.472c-.612-.673-1.254-1.315-1.866-1.989-2.6-2.784-4.283-5.2-8.719-5.17-6.669-.214-10.524,7.036-6,11.962.887.918,1.744,1.866,2.631,2.815a7.471,7.471,0,0,0-3.885,7.434c-8.78-11.319-28.023-11.442-36.467.428-1.468-1.56-2.937-3.09-4.436-4.62-3.243-3.916-10.555-5.446-15.725-3.61.214-4.283-.52-6-3.549-8.841-2.876-3.029-5.384-6.547-10.187-5.231,2.172-3.212,3.641-5.507.153-8.566C96.053,7,93.361,4.308,90.669,1.647A4.228,4.228,0,0,0,87.4.117H68.214a4.286,4.286,0,0,0-3.641,2.019L37.682,45.608l-3.7-32.7c-.245-2.233-2.264-3.426-3.641-4.925-1.591-1.621-3.212-3.243-4.834-4.834C24.1,1.769,22.814-.067,20.612-.005c-.061-.031-16.337.245-16.4.214a4.261,4.261,0,0,0-3.182,1.5A4.352,4.352,0,0,0,.023,5.073l10.4,75.442c.245,2.233,2.019,3.549,3.457,5.017,1.958,1.989,3.916,3.946,5.9,5.9,1.377,1.53,2.937,3,5.2,2.937H47.258a5.437,5.437,0,0,0,4.65-2.57l11.105-17.56c9.3,6.394,25.973,8.168,34.08.184.857.918,1.744,1.836,2.6,2.723a7.239,7.239,0,0,0,12.543-4.956V55.826c0-4.008,1.744-6,5.078-5.966.092-.459.031,17.193.061,17.407a7.342,7.342,0,0,0,2.2,5.293c2.937,2.692,5.14,6.945,9.667,6.914a7.421,7.421,0,0,0,7.25-8.444,23.927,23.927,0,0,0,25.484,7.893c-.551,3.457,2.294,5.507,4.344,7.74,2.233,2.662,4.344,4.161,8.229,4.069,8.719.031,13.461-5.354,13.43-14.134V71.367c12.849,16,40.841,8.321,40.9-13.216A21.144,21.144,0,0,0,223.044,43.222ZM171.465,28.6a4.824,4.824,0,0,1-1.377-3.488,4.792,4.792,0,0,1,1.377-3.579,6.491,6.491,0,0,1,4.711-1.774,6.566,6.566,0,0,1,4.742,1.774,4.865,4.865,0,0,1,1.377,3.579,4.824,4.824,0,0,1-1.377,3.488,7.182,7.182,0,0,1-9.453,0Zm-130.2,53.14a3.644,3.644,0,0,1-3.09,1.713H15.9A3.663,3.663,0,0,1,12.26,80.27L1.858,4.828A2.44,2.44,0,0,1,4.245,2.044L20.581,1.83A2.456,2.456,0,0,1,23.059,4l6.608,58.1L66.134,3.115a2.424,2.424,0,0,1,2.08-1.163H87.365a2.466,2.466,0,0,1,2.08,3.763l-9.178,14.5A36.062,36.062,0,0,0,75.4,19.88c-11.411,0-19.365,6.945-19.365,16.918v.153c0,6.088,2.264,9.79,5.813,12.3ZM222.493,53.379c0,11.013-8.872,19.946-20.8,19.946-9.331,0-16.734-5.415-19.488-13.094a.327.327,0,0,0-.275-.214.307.307,0,0,0-.306.306V71.8c0,8.444-4.436,12.3-11.595,12.3h-.153c-3.518,0-6.088-1.438-6.088-4.436a4.191,4.191,0,0,1,4.222-4.375h.061c1.56,0,2.631-1.01,2.631-3.579V60.14a.307.307,0,0,0-.306-.306.262.262,0,0,0-.275.214c-2.784,7.709-10.249,13.247-19.641,13.247-9.667,0-17.285-5.843-19.794-13.92a.262.262,0,0,0-.275-.214.307.307,0,0,0-.306.306v7.985A5.453,5.453,0,0,1,124.78,72.9h-.092a5.564,5.564,0,0,1-5.446-5.568V51.084c0-5.14-2.417-7.8-6.577-7.8s-6.792,2.631-6.792,7.8V67.452a5.453,5.453,0,0,1-5.323,5.446h-.092a5.564,5.564,0,0,1-5.446-5.568V63.78a.307.307,0,0,0-.306-.306.294.294,0,0,0-.275.184c-2.447,6.149-8.9,9.514-17.285,9.514a32.35,32.35,0,0,1-18.815-6,5.1,5.1,0,0,1,3.09-9.208h.4a5.583,5.583,0,0,1,2.723.979,21.1,21.1,0,0,0,12.788,4.5c4.5,0,7.22-1.774,7.22-4.711V58.58c0-2.784-1.713-4.222-10.1-6.363-10.1-2.57-16.581-5.354-16.581-15.3v-.153c0-9.086,7.281-15.082,17.53-15.082a28.9,28.9,0,0,1,15.878,4.436A5,5,0,0,1,93.7,30.587a5.107,5.107,0,0,1-5.17,4.987h-.092a5.429,5.429,0,0,1-2.692-.8c-3.641-2.141-7.067-3.365-10.524-3.365-4.222,0-6.424,1.927-6.424,4.375v.153c0,3.3,2.141,4.375,10.8,6.577,7.587,1.989,12.7,4.5,14.776,9.3a.294.294,0,0,0,.275.184.307.307,0,0,0,.306-.306V25.264a5.453,5.453,0,0,1,5.323-5.446h.092a5.564,5.564,0,0,1,5.446,5.568V39.551c2.509-3.212,5.721-6.149,11.228-6.149,8.229,0,13,5.446,13,14.226v.214a.313.313,0,0,0,.612.092A20.639,20.639,0,0,1,150.57,33.371c9.331,0,16.734,5.415,19.488,13.094a.327.327,0,0,0,.275.214.307.307,0,0,0,.306-.306v-7.22a5.453,5.453,0,0,1,5.323-5.446h.092a5.564,5.564,0,0,1,5.446,5.568v7.281a.307.307,0,0,0,.306.306.262.262,0,0,0,.275-.214c2.784-7.709,10.249-13.247,19.641-13.247,11.87,0,20.681,8.811,20.681,19.793v.184ZM71.671,60.691l2.08-3.273c2.57.857,6.241,1.652,8.688,2.447-.979,1.591-4.008,1.744-5.078,1.744A17.876,17.876,0,0,1,71.671,60.691ZM93.178,42.182v4.711a24.107,24.107,0,0,0-9.514-5.14l1.652-2.631C87.763,39.888,90.394,42.335,93.178,42.182Z" transform="translate(0.011 0.008)"/></g></g></svg>