<svg xmlns="http://www.w3.org/2000/svg" width="328" height="198" viewBox="0 0 328 198"><defs><style>.a{fill:#fff;}.b{fill:#f50f75;}</style></defs><g transform="translate(-796 -600)"><rect class="a" width="328" height="198" rx="25" transform="translate(796 600)"/><g transform="translate(913 654)"><path class="b" d="M44.328,88.656h0A44.333,44.333,0,0,1,0,44.328H0A44.333,44.333,0,0,1,44.328,0h0A44.333,44.333,0,0,1,88.656,44.328h0A44.333,44.333,0,0,1,44.328,88.656Z"/><g transform="translate(0.483 3.205)"><path d="M94.436,29.924c-2.458-2.489-4.947-4.978-7.436-7.436a3.974,3.974,0,0,0-3.039-1.42H66.248a3.944,3.944,0,0,0-3.375,1.878l-24.859,40.2L34.563,32.917c-.229-2.077-2.107-3.161-3.375-4.566-1.466-1.5-2.962-2.993-4.459-4.459-1.3-1.283-2.458-2.962-4.52-2.9-.046-.015-15.1.214-15.147.2a3.95,3.95,0,0,0-3.863,4.5l9.62,69.782c.229,2.077,1.863,3.283,3.207,4.642,1.787,1.8,3.6,3.634,5.436,5.436,1.267,1.4,2.733,2.779,4.81,2.733h20.6a5.085,5.085,0,0,0,4.306-2.367L95.6,35.8C96.7,33.8,96.879,32.077,94.436,29.924Zm-8.566-3.68L80.25,35.115h0L41.312,96.576a3.415,3.415,0,0,1-2.871,1.573h-20.6a3.391,3.391,0,0,1-3.359-2.932L4.864,25.434a2.262,2.262,0,0,1,2.214-2.565l15.1-.2a2.257,2.257,0,0,1,2.275,2L30.578,78.4,64.324,23.846a2.253,2.253,0,0,1,1.924-1.069H83.961A2.249,2.249,0,0,1,85.869,26.244Z" transform="translate(-3.163 -20.989)"/><g transform="translate(1.68 1.681)"><path class="a" d="M95.189,35.572,89.57,44.444h0L50.632,105.9a3.415,3.415,0,0,1-2.871,1.573h-20.6a3.391,3.391,0,0,1-3.359-2.932l-9.62-69.782A2.262,2.262,0,0,1,16.4,32.2L31.5,32a2.257,2.257,0,0,1,2.275,2L39.9,87.733,73.643,33.175a2.253,2.253,0,0,1,1.924-1.069H93.28A2.249,2.249,0,0,1,95.189,35.572Z" transform="translate(-14.162 -31.999)"/></g></g></g></g></svg>