<svg xmlns="http://www.w3.org/2000/svg" width="328" height="198" viewBox="0 0 328 198"><defs><style>.a{fill:#fff;}.b{fill:#f50f75;}</style></defs><g transform="translate(-796 -825)"><rect class="a" width="328" height="198" rx="25" transform="translate(796 825)"/><g transform="translate(913 878)"><g transform="translate(0.962 0.962)"><path class="b" d="M50.628,94.956h0A44.333,44.333,0,0,1,6.3,50.628h0A44.333,44.333,0,0,1,50.628,6.3h0A44.333,44.333,0,0,1,94.956,50.628h0A44.333,44.333,0,0,1,50.628,94.956Z" transform="translate(-6.3 -6.3)"/><g transform="translate(2.163 4.886)"><g transform="translate(0 0)"><path class="a" d="M101.5,41.872l-5.619,8.872h0L56.947,112.2a3.415,3.415,0,0,1-2.871,1.573H33.463a3.391,3.391,0,0,1-3.359-2.932l-9.62-69.782A2.262,2.262,0,0,1,22.7,38.5l15.1-.2a2.257,2.257,0,0,1,2.275,2L46.2,94.033,79.943,39.475a2.253,2.253,0,0,1,1.924-1.069H99.58A2.26,2.26,0,0,1,101.5,41.872Z" transform="translate(-20.462 -38.299)"/></g></g></g><path d="M92.733,13.117C90.274,10.628,87.785,8.139,85.3,5.68a3.974,3.974,0,0,0-3.039-1.42H64.514A45.492,45.492,0,0,0,23.531,5.543a4.207,4.207,0,0,0-3.054-1.4c-.046-.015-15.1.214-15.147.2a3.95,3.95,0,0,0-3.863,4.5L3.94,26.783a45.344,45.344,0,0,0,6.535,47.473l.611,4.382c.229,2.077,1.863,3.283,3.207,4.642q2.7,2.749,5.451,5.451c1.267,1.4,2.733,2.779,4.81,2.733h20.6a5.1,5.1,0,0,0,3.008-.977,45.337,45.337,0,0,0,39.4-61.521l6.322-9.986C94.977,16.98,95.16,15.254,92.733,13.117ZM45.29,1.924A43.008,43.008,0,0,1,61.9,5.237a4.185,4.185,0,0,0-.748.886L36.3,46.328,32.845,16.079c-.229-2.077-2.107-3.161-3.375-4.566C28,10.017,26.508,8.52,25.012,7.055l-.046-.046A42.977,42.977,0,0,1,45.29,1.924ZM1.924,45.29A43.281,43.281,0,0,1,4.459,30.677L9.925,70.363A43.236,43.236,0,0,1,1.924,45.29Zm86.732,0A43.43,43.43,0,0,1,49.9,88.411L86.243,31.043A43.128,43.128,0,0,1,88.656,45.29Zm-8.734-29.18-.7,1.115-.672,1.069h0L39.609,79.753a3.415,3.415,0,0,1-2.871,1.573H16.109a3.391,3.391,0,0,1-3.359-2.932l-.26-1.878h0l-.244-1.787-6.5-47.214h0L5.268,24.05h0L3.13,8.627A2.262,2.262,0,0,1,5.344,6.062l15.1-.2a2.224,2.224,0,0,1,1.542.58h0a2.175,2.175,0,0,1,.382.458h0c.031.061.076.107.107.168a.015.015,0,0,0,.015.015c.031.061.046.107.076.168,0,.015.015.031.015.046.015.046.031.092.046.153.015.031.015.061.031.092s.015.076.031.107c.015.061.015.122.031.183v.031l.031.321L28.86,61.6,62.606,7.024a2.307,2.307,0,0,1,1.176-.947,1.491,1.491,0,0,1,.351-.092h.031A.423.423,0,0,1,64.3,5.97H82.258a2.263,2.263,0,0,1,1.909,3.481l-4.245,6.658Z"/></g></g></svg>