<svg xmlns="http://www.w3.org/2000/svg" width="328" height="198" viewBox="0 0 328 198"><defs><style>.a{fill:#fff;}.b{fill:#f50f75;}</style></defs><g transform="translate(-1152 -600)"><rect class="a" width="328" height="198" rx="25" transform="translate(1152 600)"/><g transform="translate(1202 652)"><path class="b" d="M223.044,43.222c-1.713-1.774-3.4-3.579-5.14-5.354-8.291-8.535-24.6-8.229-32.551.4-.551-.551-1.071-1.132-1.621-1.713a7.014,7.014,0,0,0,3.029-11.472c-.612-.673-1.254-1.315-1.866-1.989-2.6-2.784-4.283-5.2-8.719-5.17-6.669-.214-10.524,7.036-6,11.962.887.918,1.744,1.866,2.631,2.815a7.471,7.471,0,0,0-3.885,7.434c-8.78-11.319-28.023-11.442-36.467.428-1.468-1.56-2.937-3.09-4.436-4.62-3.243-3.916-10.555-5.446-15.725-3.61.214-4.283-.52-6-3.549-8.841-2.876-3.029-5.384-6.547-10.187-5.231,2.172-3.212,3.641-5.507.153-8.566C96.053,7,93.361,4.308,90.669,1.647A4.228,4.228,0,0,0,87.4.117H68.214a4.286,4.286,0,0,0-3.641,2.019L37.682,45.608l-3.7-32.7c-.245-2.233-2.264-3.426-3.641-4.925-1.591-1.621-3.212-3.243-4.834-4.834C24.1,1.769,22.814-.067,20.612-.005c-.061-.031-16.337.245-16.4.214a4.261,4.261,0,0,0-3.182,1.5A4.352,4.352,0,0,0,.023,5.073l10.4,75.442c.245,2.233,2.019,3.549,3.457,5.017,1.958,1.989,3.916,3.946,5.9,5.9,1.377,1.53,2.937,3,5.2,2.937H47.258a5.437,5.437,0,0,0,4.65-2.57l11.105-17.56c9.3,6.394,25.973,8.168,34.08.184.857.918,1.744,1.836,2.6,2.723a7.239,7.239,0,0,0,12.543-4.956V55.826c0-4.008,1.744-6,5.078-5.966.092-.459.031,17.193.061,17.407a7.342,7.342,0,0,0,2.2,5.293c2.937,2.692,5.14,6.945,9.667,6.914a7.421,7.421,0,0,0,7.25-8.444,23.927,23.927,0,0,0,25.484,7.893c-.551,3.457,2.294,5.507,4.344,7.74,2.233,2.662,4.344,4.161,8.229,4.069,8.719.031,13.461-5.354,13.43-14.134V71.367c12.849,16,40.841,8.321,40.9-13.216A21.144,21.144,0,0,0,223.044,43.222ZM77.331,61.608a17.829,17.829,0,0,1-5.66-.918l2.08-3.273c2.57.857,6.241,1.652,8.688,2.447C81.43,61.486,78.4,61.608,77.331,61.608ZM93.178,46.893a24.107,24.107,0,0,0-9.514-5.14l1.652-2.631c2.417.734,5.048,3.182,7.832,3.059v4.711ZM146.96,58.151a8.15,8.15,0,0,1,11.136-8.2c2.57,6.516-2.631,14.44-10.524,11.595A9.811,9.811,0,0,1,146.96,58.151Zm62.99-4.772a8.15,8.15,0,0,1-11.136,8.2c-2.57-6.516,2.631-14.44,10.524-11.595A9.811,9.811,0,0,1,209.95,53.379Z" transform="translate(0.011 0.008)"/><g transform="translate(1.844 1.838)"><path class="a" d="M329.784,78.483c-9.392,0-16.887,5.537-19.641,13.247a.327.327,0,0,1-.275.214.307.307,0,0,1-.306-.306V84.357a5.544,5.544,0,0,0-5.445-5.568h-.092a5.433,5.433,0,0,0-5.323,5.446v7.25a.307.307,0,0,1-.306.306.262.262,0,0,1-.275-.214c-2.753-7.648-10.187-13.094-19.488-13.094a20.639,20.639,0,0,0-19.916,14.562.313.313,0,0,1-.612-.092v-.214c0-8.811-4.8-14.226-13-14.226-5.507,0-8.719,2.937-11.228,6.149v-14.2A5.544,5.544,0,0,0,228.43,64.9h-.092a5.433,5.433,0,0,0-5.323,5.446v26.4a.307.307,0,0,1-.306.306.294.294,0,0,1-.275-.184c-2.111-4.8-7.22-7.312-14.776-9.3-8.658-2.2-10.8-3.3-10.8-6.577v-.153c0-2.417,2.2-4.375,6.424-4.375,3.426,0,6.853,1.224,10.524,3.365a5.337,5.337,0,0,0,2.692.8h.092a5.11,5.11,0,0,0,2.753-9.453,29.155,29.155,0,0,0-15.878-4.436c-10.218,0-17.53,6-17.53,15.082v.153c0,9.943,6.516,12.727,16.581,15.3,8.352,2.141,10.1,3.579,10.1,6.363v.153c0,2.937-2.723,4.711-7.22,4.711a21.034,21.034,0,0,1-12.788-4.5,5.19,5.19,0,0,0-2.723-.979h-.4a5.1,5.1,0,0,0-4.864,3.335,5.162,5.162,0,0,0,1.774,5.874,32.281,32.281,0,0,0,18.815,6c8.382,0,14.837-3.365,17.285-9.514a.294.294,0,0,1,.275-.184.307.307,0,0,1,.306.306v3.549a5.544,5.544,0,0,0,5.445,5.568h.092a5.432,5.432,0,0,0,5.323-5.446V96.135c0-5.14,2.631-7.8,6.792-7.8s6.577,2.631,6.577,7.8V112.38a5.544,5.544,0,0,0,5.445,5.568h.092a5.433,5.433,0,0,0,5.323-5.446v-7.985a.307.307,0,0,1,.306-.306.262.262,0,0,1,.275.214c2.509,8.107,10.126,13.92,19.794,13.92,9.392,0,16.887-5.537,19.641-13.247a.327.327,0,0,1,.275-.214.307.307,0,0,1,.306.306v11.564c0,2.57-1.071,3.579-2.631,3.579h-.061a4.173,4.173,0,0,0-4.222,4.375c0,3,2.57,4.436,6.088,4.436h.153c7.159,0,11.595-3.855,11.595-12.3V105.374a.307.307,0,0,1,.306-.306.262.262,0,0,1,.275.214c2.753,7.648,10.187,13.094,19.488,13.094,11.931,0,20.8-8.933,20.8-19.946v-.153C350.434,87.263,341.654,78.483,329.784,78.483Zm-41.27,20.069c0,5.66-3.732,10.432-9.943,10.432-6,0-10.1-4.925-10.1-10.585v-.122c0-5.66,3.732-10.432,9.943-10.432,6,0,10.1,4.925,10.1,10.585Zm51.212,0c0,5.66-3.732,10.432-9.943,10.432-6,0-10.1-4.925-10.1-10.585v-.122c0-5.66,3.732-10.432,9.943-10.432,6,0,10.1,4.925,10.1,10.585Z" transform="translate(-129.773 -46.881)"/><path class="a" d="M60.251,41.09v-.153c0-9.973,7.954-16.918,19.365-16.918a36.414,36.414,0,0,1,4.864.337l9.178-14.5a2.456,2.456,0,0,0-2.08-3.763H72.4a2.424,2.424,0,0,0-2.08,1.163L33.85,66.268l-6.639-58.1A2.451,2.451,0,0,0,24.764,6L8.427,6.214A2.44,2.44,0,0,0,6.041,9l10.4,75.442a3.69,3.69,0,0,0,3.641,3.182H42.354a3.644,3.644,0,0,0,3.09-1.713l20.589-32.52C62.484,50.88,60.251,47.178,60.251,41.09Z" transform="translate(-6.015 -6)"/><path class="a" d="M562.016,75.216a6.646,6.646,0,0,0,4.711-1.774,5.222,5.222,0,0,0,0-7.067,7.183,7.183,0,0,0-9.453,0,5.222,5.222,0,0,0,0,7.067A6.775,6.775,0,0,0,562.016,75.216Z" transform="translate(-387.672 -46.673)"/></g></g></g></svg>