<svg xmlns="http://www.w3.org/2000/svg" width="328" height="198" viewBox="0 0 328 198"><defs><style>.a{fill:#fff;}.b{fill:#f50f75;}</style></defs><g transform="translate(-796 -2945.038)"><rect class="a" width="328" height="198" rx="25" transform="translate(796 2945.038)"/><g transform="translate(821.004 3003.038)"><path class="b" d="M265.628,39.8q-.668-.588-1.332-1.18l-1.332-1.188q-.668-.6-1.342-1.192t-1.363-1.189a21.681,21.681,0,0,0-8.227-4.257,36.011,36.011,0,0,0-10.366-1.338,39.2,39.2,0,0,0-10.608,1.561,27.545,27.545,0,0,0-8.95,4.389q-.225-.184-.445-.373t-.438-.381l-.438-.386q-.22-.194-.444-.389a9.122,9.122,0,0,0,3.714-1.675,7.064,7.064,0,0,0,2.186-2.736,5.158,5.158,0,0,0,.363-3.127,5.027,5.027,0,0,0-1.766-2.833q-.251-.231-.508-.457t-.516-.452q-.259-.226-.517-.453t-.51-.459c-.716-.639-1.367-1.258-2.022-1.826a14.25,14.25,0,0,0-2.056-1.526A9.426,9.426,0,0,0,216.2,17.29a13.313,13.313,0,0,0-3.394-.374,12.339,12.339,0,0,0-5.311,1.006,8.749,8.749,0,0,0-3.539,2.737,5.253,5.253,0,0,0-1.089,3.6,5.542,5.542,0,0,0,2.01,3.615q.371.312.735.628t.727.635l.725.639q.363.32.731.641a8.941,8.941,0,0,0-2.212,1.188,7.551,7.551,0,0,0-1.606,1.6,6.448,6.448,0,0,0-.954,1.869,5.643,5.643,0,0,0-.258,1.987,23.282,23.282,0,0,0-9.267-5.7,35.824,35.824,0,0,0-11.841-1.9,36.228,36.228,0,0,0-11.944,2.021,24.666,24.666,0,0,0-9.57,5.952q-.632-.519-1.265-1.035T157.6,35.382q-.638-.514-1.281-1.026t-1.294-1.026a12.128,12.128,0,0,0-3.605-2.22,22,22,0,0,0-4.742-1.34A26.6,26.6,0,0,0,141.5,29.4a21.205,21.205,0,0,0-4.926.686,12.517,12.517,0,0,0-.052-2.52A5.866,5.866,0,0,0,135.9,25.6a7.083,7.083,0,0,0-1.343-1.734,19.422,19.422,0,0,0-2.22-1.811c-.859-.695-1.693-1.419-2.549-2.1a17.977,17.977,0,0,0-2.691-1.813,9.817,9.817,0,0,0-3.121-1.064,10.463,10.463,0,0,0-3.833.151,25.994,25.994,0,0,0,1.669-2.1,5.1,5.1,0,0,0,.886-1.936,2.681,2.681,0,0,0-.385-1.917,7.057,7.057,0,0,0-2.146-2.047q-1.221-.952-2.452-1.905t-2.472-1.91Q114,4.454,112.754,3.5t-2.5-1.912a4.77,4.77,0,0,0-.833-.624A5.686,5.686,0,0,0,108.44.5a6.389,6.389,0,0,0-1.078-.284,6.643,6.643,0,0,0-1.132-.1H82.922a6.435,6.435,0,0,0-1.316.134,5.7,5.7,0,0,0-1.185.384,4.922,4.922,0,0,0-1.01.609,4.243,4.243,0,0,0-.791.808L49.866,41.9,42.553,12.243a3.6,3.6,0,0,0-.718-1.407,7.261,7.261,0,0,0-1.222-1.163c-.463-.36-.966-.7-1.467-1.036s-1-.673-1.452-1.027q-.781-.575-1.569-1.15t-1.583-1.15q-.794-.575-1.593-1.148t-1.6-1.142c-.463-.329-.921-.685-1.388-1.033A16.658,16.658,0,0,0,28.515,1a7.523,7.523,0,0,0-1.6-.732A5.73,5.73,0,0,0,25.063,0C25.044,0,23.8.006,21.932.026s-4.341.05-6.819.079S10.158.164,8.295.184,5.183.215,5.164.208a6.574,6.574,0,0,0-1.08.109A5.622,5.622,0,0,0,3.091.6a4.632,4.632,0,0,0-.872.445,3.814,3.814,0,0,0-.716.6,3.35,3.35,0,0,0-.522.713A3.174,3.174,0,0,0,.6,4a3.332,3.332,0,0,0,.146.856l21.331,66.73a3.546,3.546,0,0,0,.659,1.249,6.606,6.606,0,0,0,1.079,1.046c.409.324.856.628,1.312.926s.919.59,1.36.889q.9.608,1.8,1.21t1.794,1.2q.9.6,1.795,1.192t1.8,1.186c.42.308.852.613,1.3.9a11.428,11.428,0,0,0,1.416.766,8.188,8.188,0,0,0,1.571.525,7.457,7.457,0,0,0,1.769.175h24.74a8.277,8.277,0,0,0,1.527-.139,7.074,7.074,0,0,0,1.381-.4,5.708,5.708,0,0,0,1.178-.649,4.516,4.516,0,0,0,.916-.874L80.9,66.393a43.4,43.4,0,0,0,9.35,3.193,55.591,55.591,0,0,0,10.633,1.349,42.487,42.487,0,0,0,10.28-.875,22.042,22.042,0,0,0,8.3-3.514q.37.286.744.572t.75.569l.749.564.741.556a7.758,7.758,0,0,0,2.658,1.411,11.426,11.426,0,0,0,6.428.08,7.821,7.821,0,0,0,2.721-1.364,6.892,6.892,0,0,0,1-.918,5.64,5.64,0,0,0,.733-1.03,4.875,4.875,0,0,0,.449-1.118,4.617,4.617,0,0,0,.15-1.183l-.039-13.89a6.309,6.309,0,0,1,.368-2.27,4.025,4.025,0,0,1,1.111-1.622,4.762,4.762,0,0,1,1.838-.968,8.925,8.925,0,0,1,2.548-.31c.027-.1.039.786.043,2.17s0,3.253-.008,5.137-.016,3.761-.021,5.186-.007,2.386,0,2.431a4.813,4.813,0,0,0,.167,1.276,5.054,5.054,0,0,0,.489,1.181,5.812,5.812,0,0,0,.781,1.063,6.973,6.973,0,0,0,1.043.922c.828.562,1.6,1.2,2.378,1.851s1.549,1.3,2.38,1.874a11.7,11.7,0,0,0,2.713,1.445,9.654,9.654,0,0,0,3.378.568,10.527,10.527,0,0,0,3.517-.567,8.48,8.48,0,0,0,2.738-1.548,6.352,6.352,0,0,0,1.7-2.245,5.035,5.035,0,0,0,.4-2.657,23.947,23.947,0,0,0,5.744,3.988,31.2,31.2,0,0,0,7.023,2.508,36.043,36.043,0,0,0,15.762.066,3.092,3.092,0,0,0,.062,1.938,4.8,4.8,0,0,0,1.068,1.62,14.794,14.794,0,0,0,1.622,1.427c.583.457,1.183.9,1.727,1.357a15.744,15.744,0,0,0,1.784,1.439,10.183,10.183,0,0,0,1.952,1.049,10.69,10.69,0,0,0,2.323.63,16.6,16.6,0,0,0,2.9.18,24.717,24.717,0,0,0,6.508-.777,14.8,14.8,0,0,0,4.9-2.273,11.013,11.013,0,0,0,3.213-3.637,12.354,12.354,0,0,0,1.418-4.878l.063-.678.139-1.5.139-1.5.063-.684a24.571,24.571,0,0,0,12.7,6.411,37.644,37.644,0,0,0,15.17-.2,32.02,32.02,0,0,0,13.285-6.053,17.981,17.981,0,0,0,6.869-11.355,13.933,13.933,0,0,0,.112-3.569,13.344,13.344,0,0,0-.8-3.41,14.263,14.263,0,0,0-1.69-3.169A16.676,16.676,0,0,0,265.628,39.8ZM96.6,55.749q-.828,0-1.65-.049t-1.639-.147q-.816-.1-1.625-.245t-1.608-.343l2.24-2.8c.748.184,1.574.365,2.438.543s1.763.353,2.658.527,1.785.346,2.628.517,1.64.341,2.349.511a2.917,2.917,0,0,1-1.2.817,8.007,8.007,0,0,1-1.651.447,15.616,15.616,0,0,1-1.674.187C97.356,55.743,96.91,55.749,96.6,55.749Zm17.8-12.719a19.831,19.831,0,0,0-2.434-1.472,28.138,28.138,0,0,0-2.737-1.221c-.954-.369-1.944-.7-2.957-1.006s-2.049-.578-3.094-.828l1.842-2.335a15.6,15.6,0,0,1,2.191.716c.746.294,1.508.623,2.281.928a18.953,18.953,0,0,0,2.353.784,8.745,8.745,0,0,0,2.409.286l.111,4.148Zm62.042,9.763a5.927,5.927,0,0,1,.99-3.4,8.558,8.558,0,0,1,2.873-2.7,11.017,11.017,0,0,1,4.243-1.42,12.611,12.611,0,0,1,5.076.428,6.267,6.267,0,0,1,.4,4.3,7.605,7.605,0,0,1-2.375,3.737,9.882,9.882,0,0,1-4.525,2.214,13,13,0,0,1-6.1-.26,6.6,6.6,0,0,1-.273-.7,6.445,6.445,0,0,1-.19-.722,6.286,6.286,0,0,1-.1-.738A6.147,6.147,0,0,1,176.449,52.793ZM249.3,48.68a6.357,6.357,0,0,1-1.258,3.406,9.471,9.471,0,0,1-3.054,2.665,11.651,11.651,0,0,1-4.292,1.391,12.445,12.445,0,0,1-4.995-.419,6.1,6.1,0,0,1-.18-4.249,8.2,8.2,0,0,1,2.578-3.756,10.645,10.645,0,0,1,4.7-2.254,12.883,12.883,0,0,1,6.147.266,6.274,6.274,0,0,1,.353,2.949Z" transform="translate(0 -0.001)"/><path class="a" d="M171.985,12.379a35.164,35.164,0,0,0-7.9.886,30.8,30.8,0,0,0-6.89,2.459,24.805,24.805,0,0,0-5.513,3.728,18.6,18.6,0,0,0-3.8,4.691.573.573,0,0,1-.066.075.458.458,0,0,1-.078.059.383.383,0,0,1-.09.039.362.362,0,0,1-.1.014.438.438,0,0,1-.129-.019.36.36,0,0,1-.109-.054.247.247,0,0,1-.073-.085.2.2,0,0,1-.021-.11l.545-6.43a3.769,3.769,0,0,0-.341-1.914,4.605,4.605,0,0,0-1.239-1.585,6.128,6.128,0,0,0-1.945-1.08,7.548,7.548,0,0,0-2.455-.4h-.108a8.377,8.377,0,0,0-2.481.413,7.321,7.321,0,0,0-2.064,1.053,5.558,5.558,0,0,0-1.442,1.537,4.108,4.108,0,0,0-.618,1.867l-.455,6.4a.226.226,0,0,1-.038.11.311.311,0,0,1-.086.085.432.432,0,0,1-.118.054.468.468,0,0,1-.132.019.5.5,0,0,1-.1-.01.346.346,0,0,1-.093-.033.227.227,0,0,1-.071-.058.2.2,0,0,1-.039-.086,14.845,14.845,0,0,0-3.057-4.648,19.767,19.767,0,0,0-4.9-3.685,26.331,26.331,0,0,0-6.453-2.425,33.247,33.247,0,0,0-7.693-.872,32.6,32.6,0,0,0-8.109,1,28.234,28.234,0,0,0-6.9,2.753,22.727,22.727,0,0,0-5.31,4.1,17.155,17.155,0,0,0-3.372,5.054.284.284,0,0,1-.159.157.488.488,0,0,1-.24.034.421.421,0,0,1-.217-.082.23.23,0,0,1-.092-.189l0-.187a12.812,12.812,0,0,0-.921-5.228A10.492,10.492,0,0,0,83.6,15.82a13.322,13.322,0,0,0-4.761-2.529,21.9,21.9,0,0,0-6.448-.884,20.027,20.027,0,0,0-4.38.458,16.28,16.28,0,0,0-3.536,1.221,17.01,17.01,0,0,0-2.863,1.756A23.785,23.785,0,0,0,59.246,17.9l-.137-12.79a4.155,4.155,0,0,0-.531-1.966A5.413,5.413,0,0,0,57.169,1.52,6.965,6.965,0,0,0,55.092.41,7.905,7.905,0,0,0,52.565,0h-.109a8,8,0,0,0-2.475.424,6.573,6.573,0,0,0-1.99,1.081,4.945,4.945,0,0,0-1.312,1.579A3.963,3.963,0,0,0,46.234,5l.574,23.519a.206.206,0,0,1-.028.109.269.269,0,0,1-.078.084.386.386,0,0,1-.112.054.449.449,0,0,1-.129.019.476.476,0,0,1-.1-.01.369.369,0,0,1-.087-.03.339.339,0,0,1-.074-.05.382.382,0,0,1-.061-.07,10.394,10.394,0,0,0-2.547-2.787,18.061,18.061,0,0,0-3.79-2.194,37.254,37.254,0,0,0-4.98-1.74c-1.853-.52-3.895-.987-6.116-1.427-2.546-.487-4.617-.913-6.293-1.325a24.611,24.611,0,0,1-3.928-1.234A5.2,5.2,0,0,1,16.438,16.5a3.166,3.166,0,0,1-.658-1.875l-.008-.137a2.561,2.561,0,0,1,.394-1.527,3.832,3.832,0,0,1,1.363-1.251,7.958,7.958,0,0,1,2.322-.845,15.682,15.682,0,0,1,3.265-.31,23.363,23.363,0,0,1,3.042.2,27.593,27.593,0,0,1,3.084.591q1.556.388,3.149.951t3.235,1.284c.246.11.492.207.742.293a7.632,7.632,0,0,0,1.569.359c.279.034.569.054.874.061h.108a7.809,7.809,0,0,0,2.321-.344,6.261,6.261,0,0,0,1.888-.946A4.577,4.577,0,0,0,44.4,11.588a3.638,3.638,0,0,0,.469-1.775,3.863,3.863,0,0,0-.263-1.38,4.247,4.247,0,0,0-.675-1.144,5.266,5.266,0,0,0-.948-.9A6.041,6.041,0,0,0,41.9,5.756a38.713,38.713,0,0,0-4.23-1.73A41.338,41.338,0,0,0,33.092,2.75a45.224,45.224,0,0,0-4.928-.788,50.532,50.532,0,0,0-5.266-.27,33.209,33.209,0,0,0-8.329.992,20.509,20.509,0,0,0-6.41,2.8,12.219,12.219,0,0,0-4,4.323,10.171,10.171,0,0,0-1.14,5.565l.01.137a11.154,11.154,0,0,0,1.763,5.527,11.854,11.854,0,0,0,4.134,3.684,28.219,28.219,0,0,0,6.212,2.452c2.383.677,5.068,1.247,8,1.8,2.434.464,4.387.89,5.95,1.305a20.641,20.641,0,0,1,3.6,1.239,4.694,4.694,0,0,1,1.794,1.34,2.752,2.752,0,0,1,.524,1.6l0,.131a2.663,2.663,0,0,1-.5,1.69,4.188,4.188,0,0,1-1.586,1.264,9.655,9.655,0,0,1-2.565.792,19.708,19.708,0,0,1-3.446.275,30.572,30.572,0,0,1-4.038-.264,29.739,29.739,0,0,1-3.8-.76,31.3,31.3,0,0,1-3.6-1.207,35.428,35.428,0,0,1-3.425-1.605c-.191-.1-.4-.195-.62-.286a7.264,7.264,0,0,0-.727-.252,7.722,7.722,0,0,0-.849-.193,8.832,8.832,0,0,0-.985-.109H8.417a7.98,7.98,0,0,0-1.794.2,6.559,6.559,0,0,0-1.566.571,4.907,4.907,0,0,0-1.231.9,3.678,3.678,0,0,0-.79,1.183A3.266,3.266,0,0,0,2.8,38.27a3.616,3.616,0,0,0,.409,1.4,4.6,4.6,0,0,0,.917,1.2,5.345,5.345,0,0,0,1.292.9,42.707,42.707,0,0,0,5.114,2.211,46.958,46.958,0,0,0,5.393,1.57,49.855,49.855,0,0,0,5.556.938,50.652,50.652,0,0,0,5.6.312,40.415,40.415,0,0,0,6.654-.519,26.56,26.56,0,0,0,5.588-1.53,16.412,16.412,0,0,0,4.314-2.506,10.956,10.956,0,0,0,2.822-3.452.346.346,0,0,1,.057-.068.314.314,0,0,1,.071-.049.351.351,0,0,1,.085-.029.469.469,0,0,1,.1-.01.458.458,0,0,1,.129.019.4.4,0,0,1,.113.053.284.284,0,0,1,.081.082.207.207,0,0,1,.033.106l.073,3a3.737,3.737,0,0,0,.532,1.808A5.091,5.091,0,0,0,49.1,45.194,6.8,6.8,0,0,0,51.083,46.2a7.88,7.88,0,0,0,2.4.371h.1a7.984,7.984,0,0,0,2.355-.384,6.432,6.432,0,0,0,1.9-.981,4.65,4.65,0,0,0,1.271-1.441A3.555,3.555,0,0,0,59.574,42l-.149-14.014a7.454,7.454,0,0,1,.521-2.955,5.558,5.558,0,0,1,1.559-2.141,6.859,6.859,0,0,1,2.481-1.3,11.409,11.409,0,0,1,3.279-.438,11.116,11.116,0,0,1,3.242.434,6.427,6.427,0,0,1,2.4,1.294,5.454,5.454,0,0,1,1.483,2.14,7.969,7.969,0,0,1,.5,2.966L74.8,41.9a3.651,3.651,0,0,0,.477,1.808,4.868,4.868,0,0,0,1.317,1.486A6.557,6.557,0,0,0,78.546,46.2a7.771,7.771,0,0,0,2.393.371h.1a8.1,8.1,0,0,0,2.367-.384,6.673,6.673,0,0,0,1.934-.981,4.862,4.862,0,0,0,1.315-1.441A3.637,3.637,0,0,0,87.165,42l.135-6.783a.209.209,0,0,1,.032-.107.284.284,0,0,1,.081-.083.4.4,0,0,1,.114-.053.457.457,0,0,1,.129-.019.509.509,0,0,1,.1.01.361.361,0,0,1,.093.032.241.241,0,0,1,.073.057.2.2,0,0,1,.043.084,14.832,14.832,0,0,0,3.088,4.764,19.687,19.687,0,0,0,4.935,3.716,26.31,26.31,0,0,0,6.461,2.417,33.464,33.464,0,0,0,7.69.864,34.456,34.456,0,0,0,7.569-.823,29.251,29.251,0,0,0,6.564-2.3,23.214,23.214,0,0,0,5.26-3.535,17.5,17.5,0,0,0,3.638-4.527.547.547,0,0,1,.064-.073.442.442,0,0,1,.076-.058.375.375,0,0,1,.088-.038.36.36,0,0,1,.1-.014.44.44,0,0,1,.128.019.363.363,0,0,1,.109.053.247.247,0,0,1,.074.083.2.2,0,0,1,.023.107l-.7,9.778a4.1,4.1,0,0,1-.315,1.373,2.562,2.562,0,0,1-.675.925,2.675,2.675,0,0,1-.977.522,4.208,4.208,0,0,1-1.22.164h-.069a6.7,6.7,0,0,0-1.857.257,5.354,5.354,0,0,0-1.565.73,3.875,3.875,0,0,0-1.1,1.142,3.2,3.2,0,0,0-.473,1.491,2.549,2.549,0,0,0,.413,1.611,3.485,3.485,0,0,0,1.352,1.135,7.72,7.72,0,0,0,2.119.673,15.281,15.281,0,0,0,2.716.222h.172a22.78,22.78,0,0,0,5.464-.6,12.765,12.765,0,0,0,4.245-1.845,9.2,9.2,0,0,0,2.86-3.161,11.4,11.4,0,0,0,1.3-4.563l.823-9.7a.221.221,0,0,1,.039-.107.312.312,0,0,1,.087-.083.435.435,0,0,1,.117-.053.47.47,0,0,1,.13-.019.5.5,0,0,1,.1.01.339.339,0,0,1,.091.032.219.219,0,0,1,.069.057.188.188,0,0,1,.037.084,13.966,13.966,0,0,0,2.923,4.484,18.507,18.507,0,0,0,4.677,3.492,25.066,25.066,0,0,0,6.153,2.269,32.631,32.631,0,0,0,7.371.81,34.7,34.7,0,0,0,9.54-1.309,28.885,28.885,0,0,0,7.939-3.59,21.2,21.2,0,0,0,5.682-5.377,15.076,15.076,0,0,0,2.712-6.672l.018-.132a12.8,12.8,0,0,0-.972-6.752,14.915,14.915,0,0,0-4.344-5.559,21.838,21.838,0,0,0-7.212-3.771A31.609,31.609,0,0,0,171.985,12.379ZM122.418,30.086a8.3,8.3,0,0,1-.983,3.464,9.207,9.207,0,0,1-2.411,2.844,11.591,11.591,0,0,1-3.681,1.925,15.729,15.729,0,0,1-4.8.708,14.557,14.557,0,0,1-4.663-.729,11.03,11.03,0,0,1-3.575-1.97,8.605,8.605,0,0,1-2.269-2.889,7.51,7.51,0,0,1-.729-3.486l0-.106a8.24,8.24,0,0,1,.9-3.493,9.108,9.108,0,0,1,2.379-2.907A11.514,11.514,0,0,1,106.3,21.46a15.712,15.712,0,0,1,4.894-.736,14.533,14.533,0,0,1,4.749.757,10.946,10.946,0,0,1,3.6,2.035,8.516,8.516,0,0,1,2.231,2.952,7.489,7.489,0,0,1,.646,3.512Zm59.087,0a8.765,8.765,0,0,1-1.207,3.464,10.123,10.123,0,0,1-2.6,2.844,12.534,12.534,0,0,1-3.8,1.925,16.176,16.176,0,0,1-4.85.708,14.128,14.128,0,0,1-4.616-.729,10.163,10.163,0,0,1-3.448-1.97A7.852,7.852,0,0,1,158.9,33.44a7.269,7.269,0,0,1-.5-3.486l.01-.106a8.672,8.672,0,0,1,1.129-3.493,10.009,10.009,0,0,1,2.566-2.907,12.463,12.463,0,0,1,3.842-1.989,16.167,16.167,0,0,1,4.942-.736,14.1,14.1,0,0,1,4.7.757,10.075,10.075,0,0,1,3.472,2.035,7.781,7.781,0,0,1,2.04,2.952,7.28,7.28,0,0,1,.419,3.512Z" transform="translate(69.902 18.698)"/><path class="a" d="M68.182,32.443l-.01-.137A11.449,11.449,0,0,1,69.4,26.143a13.678,13.678,0,0,1,4.374-4.868,22.337,22.337,0,0,1,7.073-3.193,35.714,35.714,0,0,1,9.275-1.145q.738,0,1.471.021t1.459.06q.726.04,1.447.1t1.434.132L106.435,3.674a1.883,1.883,0,0,0,.428-1.209,2.027,2.027,0,0,0-.414-1.16,2.873,2.873,0,0,0-1.081-.872A3.63,3.63,0,0,0,103.8.088H80.532a3.705,3.705,0,0,0-.75.075,3.214,3.214,0,0,0-.675.218,2.764,2.764,0,0,0-.577.349,2.431,2.431,0,0,0-.454.469L39.583,54.4,25.952,2.074a2.322,2.322,0,0,0-.423-.828A2.989,2.989,0,0,0,24.8.589a3.64,3.64,0,0,0-.956-.433A3.933,3.933,0,0,0,22.744,0L2.955.2A3.423,3.423,0,0,0,1.747.436a2.5,2.5,0,0,0-.889.584,1.844,1.844,0,0,0-.47.84,1.813,1.813,0,0,0,.05,1L21.622,69.621a2.9,2.9,0,0,0,.6,1.035,4.172,4.172,0,0,0,1.016.828,5.327,5.327,0,0,0,1.313.55,5.714,5.714,0,0,0,1.494.2H51.031a5.383,5.383,0,0,0,1.02-.1,4.672,4.672,0,0,0,.923-.277,3.814,3.814,0,0,0,.786-.442,3.028,3.028,0,0,0,.608-.59L75.679,43.3a17.319,17.319,0,0,1-2.91-1.857,12.456,12.456,0,0,1-2.283-2.357,11.407,11.407,0,0,1-1.562-2.963A14.079,14.079,0,0,1,68.182,32.443Z" transform="translate(2.489 1.761)"/><path class="a" d="M7.219,9.7A12.183,12.183,0,0,0,8.837,9.6a10.987,10.987,0,0,0,1.52-.312,9.193,9.193,0,0,0,1.374-.5A7.185,7.185,0,0,0,12.911,8.1a5.208,5.208,0,0,0,.769-.675,4.453,4.453,0,0,0,.574-.765,4.072,4.072,0,0,0,.556-1.737,3.833,3.833,0,0,0,0-.921,3.451,3.451,0,0,0-.226-.865,3.542,3.542,0,0,0-.451-.793,4.15,4.15,0,0,0-.677-.7A5.509,5.509,0,0,0,12.4.941,7.482,7.482,0,0,0,11.112.427a9.9,9.9,0,0,0-1.5-.318,12.838,12.838,0,0,0-3.339,0,10.69,10.69,0,0,0-1.53.318A8.9,8.9,0,0,0,3.378.941a7.271,7.271,0,0,0-1.172.7,5.59,5.59,0,0,0-.772.7,4.518,4.518,0,0,0-.575.786,3.967,3.967,0,0,0-.369.864,3.912,3.912,0,0,0-.152.933,3.873,3.873,0,0,0,.039.9,3.52,3.52,0,0,0,.247.839,3.59,3.59,0,0,0,.455.765,4.133,4.133,0,0,0,.664.675,6.166,6.166,0,0,0,1.095.685,8.105,8.105,0,0,0,1.306.5A10.113,10.113,0,0,0,5.617,9.6,11.828,11.828,0,0,0,7.219,9.7Z" transform="translate(204.697 18.614)"/></g></g></svg>