<svg xmlns="http://www.w3.org/2000/svg" width="328" height="198" viewBox="0 0 328 198"><defs><style>.a{fill:#f50f75;}.b{fill:#fff;}</style></defs><g transform="translate(-794 -1204)"><rect class="a" width="328" height="198" rx="25" transform="translate(794 1204)"/><g transform="translate(912.674 1257)"><path class="b" d="M92.733,13.117C90.274,10.628,87.785,8.139,85.3,5.68a3.974,3.974,0,0,0-3.039-1.42H64.514A45.492,45.492,0,0,0,23.531,5.543a4.207,4.207,0,0,0-3.054-1.4c-.046-.015-15.1.214-15.147.2a3.95,3.95,0,0,0-3.863,4.5L3.94,26.783a45.344,45.344,0,0,0,6.535,47.473l.611,4.382c.229,2.077,1.863,3.283,3.207,4.642q2.7,2.749,5.451,5.451c1.267,1.4,2.733,2.779,4.81,2.733h20.6a5.1,5.1,0,0,0,3.008-.977,45.337,45.337,0,0,0,39.4-61.521l6.322-9.986C94.977,16.98,95.16,15.254,92.733,13.117ZM45.29,1.924A43.008,43.008,0,0,1,61.9,5.237a4.185,4.185,0,0,0-.748.886L36.3,46.328,32.845,16.079c-.229-2.077-2.107-3.161-3.375-4.566C28,10.017,26.508,8.52,25.012,7.055l-.046-.046A42.977,42.977,0,0,1,45.29,1.924ZM1.924,45.29A43.281,43.281,0,0,1,4.459,30.677L9.925,70.363A43.236,43.236,0,0,1,1.924,45.29Zm37.67,34.464a3.376,3.376,0,0,1-1.359,1.222c-.092.046-.168.076-.26.122-.137.046-.26.092-.4.137a1.956,1.956,0,0,1-.412.076,4.025,4.025,0,0,1-.428.031H16.109A3.391,3.391,0,0,1,12.75,78.41L12.613,77.4,3.13,8.627a2.34,2.34,0,0,1,.015-.733,1.272,1.272,0,0,1,.061-.229,2.468,2.468,0,0,1,.611-.993l.031-.031a1.667,1.667,0,0,1,.26-.2,2.289,2.289,0,0,1,1.237-.4l5.07-.061,10.017-.137h.26c.061,0,.107.015.168.015a.056.056,0,0,1,.046.015c.061.015.107.031.168.046.015,0,.015,0,.031.015A.547.547,0,0,1,21.271,6h.015c.061.031.122.046.183.076h0a2.247,2.247,0,0,1,.7.55l.031.031a1.94,1.94,0,0,1,.275.412v.015h0a2.368,2.368,0,0,1,.2.55h0V7.65a.774.774,0,0,1,.031.2L28.86,61.582l3.558-5.757,30.188-48.8h0l.092-.137c.015-.015.015-.031.031-.046.031-.031.061-.076.092-.107L62.85,6.7a1.967,1.967,0,0,1,.26-.244c.015,0,.015-.015.031-.015l.137-.092a.015.015,0,0,0,.015-.015l.321-.183h.015a3.421,3.421,0,0,1,.519-.168h.015c.061-.015.122-.015.183-.031H82.273A2.272,2.272,0,0,1,84.2,9.437l-1.664,2.611-3.97,6.261h0ZM88.656,45.29A43.43,43.43,0,0,1,49.9,88.411L86.243,31.043A43.128,43.128,0,0,1,88.656,45.29Z"/></g></g></svg>